REM DIRINDEX 1\2,1\3,1\4,1\5
REM DIRNAME cjc004,folder01,folder02,folder03,folder04
TITLE ""
FILE "1Q_t_0150-0159.mp3" MP3
  TRACK 01 AUDIO
    TITLE "3:cjc004_1350"
    INDEX 01 00:00:00
  TRACK 02 AUDIO
    TITLE "0:"
    INDEX 01 00:00:74
  TRACK 03 AUDIO
    TITLE "4:cjc004_1351"
    INDEX 01 00:01:17
  TRACK 04 AUDIO
    TITLE "0:"
    INDEX 01 00:02:28
  TRACK 05 AUDIO
    TITLE "5:cjc004_1352"
    INDEX 01 00:02:57
  TRACK 06 AUDIO
    TITLE "0:"
    INDEX 01 00:08:09
  TRACK 07 AUDIO
    TITLE "3:cjc004_1353"
    INDEX 01 00:08:62
  TRACK 08 AUDIO
    TITLE "0:"
    INDEX 01 00:10:10
  TRACK 09 AUDIO
    TITLE "4:cjc004_1354"
    INDEX 01 00:10:37
  TRACK 10 AUDIO
    TITLE "0:"
    INDEX 01 00:11:66
  TRACK 11 AUDIO
    TITLE "5:cjc004_1355"
    INDEX 01 00:12:20
  TRACK 12 AUDIO
    TITLE "0:"
    INDEX 01 00:17:49
  TRACK 13 AUDIO
    TITLE "3:cjc004_1356"
    INDEX 01 00:18:29
  TRACK 14 AUDIO
    TITLE "0:"
    INDEX 01 00:19:58
  TRACK 15 AUDIO
    TITLE "4:cjc004_1357"
    INDEX 01 00:20:12
  TRACK 16 AUDIO
    TITLE "0:"
    INDEX 01 00:21:49
  TRACK 17 AUDIO
    TITLE "5:cjc004_1358"
    INDEX 01 00:22:07
  TRACK 18 AUDIO
    TITLE "0:"
    INDEX 01 00:26:36
  TRACK 19 AUDIO
    TITLE "3:cjc004_1359"
    INDEX 01 00:27:18
  TRACK 20 AUDIO
    TITLE "0:"
    INDEX 01 00:28:41
  TRACK 21 AUDIO
    TITLE "4:cjc004_1360"
    INDEX 01 00:28:66
  TRACK 22 AUDIO
    TITLE "0:"
    INDEX 01 00:30:18
  TRACK 23 AUDIO
    TITLE "5:cjc004_1361"
    INDEX 01 00:30:50
  TRACK 24 AUDIO
    TITLE "0:"
    INDEX 01 00:34:67
  TRACK 25 AUDIO
    TITLE "3:cjc004_1362"
    INDEX 01 00:35:51
  TRACK 26 AUDIO
    TITLE "0:"
    INDEX 01 00:36:74
  TRACK 27 AUDIO
    TITLE "4:cjc004_1363"
    INDEX 01 00:37:36
  TRACK 28 AUDIO
    TITLE "0:"
    INDEX 01 00:38:61
  TRACK 29 AUDIO
    TITLE "5:cjc004_1364"
    INDEX 01 00:39:13
  TRACK 30 AUDIO
    TITLE "0:"
    INDEX 01 00:42:72
  TRACK 31 AUDIO
    TITLE "3:cjc004_1365"
    INDEX 01 00:43:50
  TRACK 32 AUDIO
    TITLE "0:"
    INDEX 01 00:44:50
  TRACK 33 AUDIO
    TITLE "4:cjc004_1366"
    INDEX 01 00:44:71
  TRACK 34 AUDIO
    TITLE "0:"
    INDEX 01 00:46:33
  TRACK 35 AUDIO
    TITLE "5:cjc004_1367"
    INDEX 01 00:46:68
  TRACK 36 AUDIO
    TITLE "0:"
    INDEX 01 00:52:53
  TRACK 37 AUDIO
    TITLE "3:cjc004_1368"
    INDEX 01 00:53:41
  TRACK 38 AUDIO
    TITLE "0:"
    INDEX 01 00:54:40
  TRACK 39 AUDIO
    TITLE "4:cjc004_1369"
    INDEX 01 00:54:64
  TRACK 40 AUDIO
    TITLE "0:"
    INDEX 01 00:56:16
  TRACK 41 AUDIO
    TITLE "5:cjc004_1370"
    INDEX 01 00:56:33
  TRACK 42 AUDIO
    TITLE "0:"
    INDEX 01 01:01:23
  TRACK 43 AUDIO
    TITLE "3:cjc004_1371"
    INDEX 01 01:01:70
  TRACK 44 AUDIO
    TITLE "0:"
    INDEX 01 01:03:16
  TRACK 45 AUDIO
    TITLE "4:cjc004_1372"
    INDEX 01 01:03:33
  TRACK 46 AUDIO
    TITLE "0:"
    INDEX 01 01:04:52
  TRACK 47 AUDIO
    TITLE "5:cjc004_1373"
    INDEX 01 01:05:03
  TRACK 48 AUDIO
    TITLE "0:"
    INDEX 01 01:09:67
  TRACK 49 AUDIO
    TITLE "3:cjc004_1374"
    INDEX 01 01:10:51
  TRACK 50 AUDIO
    TITLE "0:"
    INDEX 01 01:12:07
  TRACK 51 AUDIO
    TITLE "4:cjc004_1375"
    INDEX 01 01:12:24
  TRACK 52 AUDIO
    TITLE "0:"
    INDEX 01 01:13:55
  TRACK 53 AUDIO
    TITLE "5:cjc004_1376"
    INDEX 01 01:14:10
  TRACK 54 AUDIO
    TITLE "0:"
    INDEX 01 01:18:49
  TRACK 55 AUDIO
    TITLE "3:cjc004_1377"
    INDEX 01 01:19:30
  TRACK 56 AUDIO
    TITLE "0:"
    INDEX 01 01:20:48
  TRACK 57 AUDIO
    TITLE "4:cjc004_1378"
    INDEX 01 01:20:63
  TRACK 58 AUDIO
    TITLE "0:"
    INDEX 01 01:22:21
  TRACK 59 AUDIO
    TITLE "5:cjc004_1379"
    INDEX 01 01:22:48
  TRACK 60 AUDIO
    TITLE "0:"
    INDEX 01 01:27:16
